<svg xmlns="http://www.w3.org/2000/svg" viewBox="0 0 24 24">
  <path fill="#16253a" d="M13,2 L13,4 L14,4 C15.1,4 16,4.9 16,6 L16,7 L20,7 C20.6,7 21,7.4 21,8 C21,8.6 20.6,9 20,9 L18.8,9 L20.1,15.7 C20.4,17.4 19.1,19 17.4,19 C15.7,19 14.4,17.4 14.7,15.7 L16,9 L13,9 L13,20 L17,20 L17,22 L7,22 L7,20 L11,20 L11,9 L8,9 L9.3,15.7 C9.6,17.4 8.3,19 6.6,19 C4.9,19 3.6,17.4 3.9,15.7 L5.2,9 L4,9 C3.4,9 3,8.6 3,8 C3,7.4 3.4,7 4,7 L8,7 L8,6 C8,4.9 8.9,4 10,4 L11,4 L11,2 L13,2 Z M6.6,17.5 C7.5,17.5 8.1,16.8 7.9,15.9 L7,10.5 L6.2,15.9 C6,16.8 6.6,17.5 7.5,17.5 Z M17.4,17.5 C18.3,17.5 18.9,16.8 18.7,15.9 L17.8,10.5 L17,15.9 C16.8,16.8 17.4,17.5 18.3,17.5 Z"/>
  <circle cx="17.4" cy="14" r="2.5" fill="#b08a54"/>
  <circle cx="6.6" cy="14" r="2.5" fill="#b08a54"/>
</svg>
